<svg class="main-svg" xmlns="http://www.w3.org/2000/svg" xmlns:xlink="http://www.w3.org/1999/xlink" width="700" height="500" style="" viewBox="0 0 700 500"><rect x="0" y="0" width="700" height="500" style="fill: rgb(255, 255, 255); fill-opacity: 1;"/><defs id="defs-3e5626"><g class="clips"><clipPath id="clip3e5626xyplot" class="plotclip"><rect width="507.59999999999997" height="320"/></clipPath><clipPath id="clip3e5626xy2plot" class="plotclip"><rect width="507.59999999999997" height="320"/></clipPath><clipPath class="axesclip" id="clip3e5626x"><rect x="80" y="0" width="507.59999999999997" height="500"/></clipPath><clipPath class="axesclip" id="clip3e5626y"><rect x="0" y="100" width="700" height="320"/></clipPath><clipPath class="axesclip" id="clip3e5626xy"><rect x="80" y="100" width="507.59999999999997" height="320"/></clipPath><clipPath class="axesclip" id="clip3e5626y2"><rect x="0" y="100" width="700" height="320"/></clipPath><clipPath class="axesclip" id="clip3e5626xy2"><rect x="80" y="100" width="507.59999999999997" height="320"/></clipPath></g><g class="gradients"/></defs><g class="bglayer"><rect class="bg" x="80" y="100" width="507.59999999999997" height="320" style="fill: rgb(229, 236, 246); fill-opacity: 1; stroke-width: 0;"/></g><g class="layer-below"><g class="imagelayer"/><g class="shapelayer"/></g><g class="cartesianlayer"><g class="subplot xy"><g class="layer-subplot"><g class="shapelayer"/><g class="imagelayer"/></g><g class="gridlayer"><g class="x"/><g class="y"/><g class="y2"/></g><g class="zerolinelayer"><path class="yzl zl crisp" transform="translate(0,405.57)" d="M80,0h507.59999999999997" style="stroke: rgb(255, 255, 255); stroke-opacity: 1; stroke-width: 2px;"/><path class="y2zl zl crisp" transform="translate(0,358.54)" d="M80,0h507.59999999999997" style="stroke: rgb(255, 255, 255); stroke-opacity: 1; stroke-width: 2px;"/></g><path class="xlines-below"/><path class="ylines-below"/><g class="overlines-below"><path class="xy2-x"/><path class="xy2-y"/></g><g class="xaxislayer-below"/><g class="yaxislayer-below"/><g class="overaxes-below"><g class="xy2-x"/><g class="xy2-y"/></g><g class="plot" transform="translate(80, 100)" clip-path="url('#clip3e5626xyplot')"><g class="scatterlayer mlayer"><g class="trace scatter trace8f0b5c" style="stroke-miterlimit: 2; opacity: 1;"><g class="fills"/><g class="errorbars"/><g class="lines"><path class="js-line" d="M0,302.43L11.3,303.6L11.55,304L12.53,303.69L12.78,303.64L18.67,303.63L18.92,303.52L19.9,303.48L20.15,303.55L25.55,303.16L25.8,303.2L31.69,303.48L31.94,303.49L35.13,303.73L35.38,303.65L48.89,303.61L49.14,303.5L55.04,303.24L55.28,303.2L56.51,303.32L56.75,303.31L66.34,303.77L66.58,303.73L75.18,303.69L75.43,303.68L83.04,303.04L83.29,302.85L84.27,302.7L84.52,302.6L86.73,303.01L86.98,302.98L92.13,302.38L92.38,302.32L112.04,302L112.53,301.97L135.62,300.9L135.87,300.67L138.08,299.85L138.32,299.54L140.29,299.97L140.54,300.52L141.76,300.02L142.01,300.08L145.2,300.1L145.45,299.87L150.36,300.39L150.61,301.15L151.59,300.5L151.84,300.47L171.25,300.01L171.49,299.86L175.42,299.61L175.67,299.72L185.5,298.67L185.74,298.26L186.73,298.15L186.97,297.77L188.45,297.21L188.69,296.43L189.43,298.21L189.67,298.13L189.92,298.17L190.17,298.12L190.41,299.08L193.36,298.01L193.61,298.27L200.73,296.38L200.98,295.89L202.2,295.75L202.45,295.38L203.68,294.84L203.92,295.22L204.66,296.19L204.91,295.42L206.14,294.32L206.38,295.21L206.63,296.47L207.12,295.53L207.36,294.95L208.1,295.82L208.35,295.68L208.59,295.78L209.82,294.65L210.07,294.55L211.05,294.05L211.3,293.79L214.73,293.04L214.98,293.01L216.21,292.43L216.45,291.66L218.91,286.38L219.16,284.85L219.4,285.19L219.65,284.34L219.89,283.99L220.14,284.37L220.39,283.83L220.63,283.48L221.12,283.43L221.37,280.29L222.84,272.64L223.09,270.96L223.83,277.57L224.07,275.55L224.32,273.98L224.56,273.95L224.81,271.9L226.28,263.8L226.53,266.03L227.51,259.79L228,260.14L228.25,263.83L228.49,264.69L228.74,263.39L228.99,260.72L229.23,261.89L229.48,260.75L229.72,259.42L231.2,267.36L231.44,266.13L231.69,263.93L231.93,265.1L232.18,266.57L232.42,268.31L232.67,266.55L232.92,266.16L233.65,266.19L233.9,268.96L234.14,268.14L234.39,269.12L234.64,272.72L235.13,271.54L236.11,279.69L236.36,275.51L237.58,267.83L237.83,268.73L238.08,268.59L238.32,271.53L238.57,272.21L238.81,271.04L239.06,269.58L239.55,271.15L239.8,269.81L240.04,269.43L240.29,269.99L240.53,268.97L240.78,268.53L241.76,260.34L242.01,261.03L242.25,260.8L242.5,258.87L243.97,252.81L244.22,255.73L245.2,253.8L245.45,252.8L246.67,250.06L246.92,248.05L247.66,242L247.9,247.11L248.15,246.15L248.39,251.87L248.89,247.21L249.13,247.73L249.38,251.65L250.61,256.41L250.85,266.84L251.83,255.46L252.08,256.28L252.33,256.69L252.57,259.9L252.82,260.36L253.06,257.29L253.55,254.94L253.8,255.93L254.05,253.24L254.54,255.1L254.78,253.31L255.03,252.88L255.27,252.89L255.52,253.69L255.77,254.48L256.01,253.73L256.26,252.76L257.49,249.72L257.73,246.44L258.71,242.09L258.96,243.38L259.21,244.18L259.45,243.92L259.7,242.59L259.94,242.15L260.19,242.68L260.43,243.43L260.68,245.44L261.17,243.42L261.42,243.87L261.66,243.95L261.91,240.56L262.15,240.52L262.4,239.05L263.63,231.85L263.87,233.48L264.12,232.96L264.36,229.57L264.61,229.85L264.86,233.03L265.35,233.88L268.05,211.6L268.3,207.99L269.28,191.58L269.52,200.15L271.24,165.69L271.49,134.97L271.98,152.42L272.23,151.94L272.47,136.97L274.19,80.92L274.44,79.03L274.93,84.81L275.18,118.94L276.16,87.15L276.4,88.67L276.65,100.27L276.9,84.36L277.14,99.26L277.39,82.9L277.63,86.48L277.88,66.89L278.86,16L279.11,16.21L279.35,40.82L279.84,45.89L280.09,70.53L280.58,39.36L280.83,53.41L281.07,63.7L281.56,118.22L281.81,110.6L282.05,109.09L282.3,86.31L282.55,113.02L282.79,124.66L283.04,125.91L283.28,118.41L283.53,118.55L283.77,122.44L284.27,104.44L284.51,114.2L284.76,115.48L285.74,160.76L285.99,156.1L286.48,194.9L286.97,183.58L287.21,172.1L288.2,158.21L288.44,163.36L289.43,131.01L289.67,140.56L289.92,134.62L290.41,136.65L290.65,156.4L290.9,150.08L291.15,158.17L291.39,156.94L291.88,147.44L292.37,148.18L292.62,147.32L293.36,144.68L293.6,154.05L294.58,178.48L294.83,170.78L296.3,195.36L296.55,195.01L296.8,187.91L297.29,184.7L297.53,188.47L297.78,188.26L298.02,190.81L298.27,191.98L298.52,197.51L299.99,217.27L300.24,214.24L300.48,208.03L300.73,216.6L300.97,216.06L301.22,219.51L301.46,216.53L301.71,214.75L301.96,216.39L302.2,215.27L302.45,211.84L303.43,193.18L303.68,195.86L303.92,197.24L304.17,191.49L305.64,159.76L305.89,175.72L306.87,161.32L307.12,166.28L307.36,166.57L307.61,164.12L308.34,151.66L308.59,154.79L308.84,160.24L309.57,168.24L309.82,178.34L310.31,170.94L310.55,171.52L310.8,176.74L311.05,178.09L311.29,183.89L312.03,176.96L312.27,179.23L312.52,186.37L313.5,196.02L313.75,196.96L313.99,203.78L314.24,196.52L314.49,197.4L314.73,195.36L315.22,191.71L315.47,188.97L315.71,192.81L316.21,190.67L316.45,190.66L316.94,194.04L317.19,205.4L317.43,203.53L317.68,209.62L317.93,213.48L318.17,207.71L318.42,212.2L318.66,211.24L318.91,212.08L319.15,208.27L319.4,206.82L319.89,208.2L320.14,218.02L320.38,217.01L320.63,218.75L320.87,217.56L321.12,221.65L321.37,220.21L321.61,224.02L322.59,213.38L322.84,215L323.09,214.02L323.33,214.63L323.58,214.46L323.82,212.25L324.31,214.82L324.56,220.34L324.81,219.02L325.05,221.42L325.3,220.62L325.54,220.45L325.79,218.38L326.28,206.12L326.77,207.17L327.02,210.75L327.75,207.8L328,200.46L328.49,205.32L328.98,202.98L329.23,202.93L329.47,204.15L329.72,209.49L331.44,222.04L331.68,228.62L331.93,225.51L332.18,230.58L332.42,231.73L332.67,230.75L332.91,233.51L333.16,234.84L333.4,234.1L333.65,233.3L333.9,227.45L334.39,229.65L334.63,233.79L335.62,229.67L335.86,229.38L336.11,230.08L336.35,227.02L336.6,224.23L337.09,225.9L337.34,225.62L337.83,222.02L338.32,222.2L338.56,231.58L340.04,238.4L340.28,238.17L341.02,234.24L341.27,234.56L341.51,238.31L342.49,225.58L342.99,225.74L343.23,229.35L343.48,230.55L343.72,230.36L343.97,226.78L344.21,227.9L344.71,226.95L344.95,227.2L345.44,229.53L345.69,228.84L345.93,228.27L346.18,229.29L346.43,229.15L346.67,228.1L347.16,229.49L347.41,236.28L348.88,230.34L349.13,231.96L349.37,232.23L349.87,231.67L350.11,231.93L351.09,232.44L351.34,232.74L351.59,232.32L351.83,234.97L353.55,231L353.8,228.45L354.04,228.28L354.29,230.04L355.27,230.93L355.52,231.57L356.25,240.99L356.5,240.71L356.75,240.49L358.22,261L358.46,259.71L358.71,262.02L358.96,261.96L359.2,257.4L360.18,259.52L360.43,262.22L360.68,261.77L360.92,264.01L361.41,268.19L361.66,268.17L361.9,266.81L363.13,270.59L363.38,270.6L363.62,270.43L363.87,266.8L365.59,258.3L365.84,261.91L366.08,261.44L366.33,264.56L366.82,260.79L367.06,261.14L367.31,262.29L367.8,259.21L368.29,260.07L368.54,260.3L368.78,258.07L369.28,258.59L369.52,258.24L370.5,265.37L370.75,263L371,264.22L371.49,263.45L371.73,263.88L371.98,263L372.22,264.55L372.47,264.63L373.45,264.3L373.7,264.29L373.94,264.64L374.19,266.49L374.43,266.78L374.68,265.65L376.15,265.09L376.4,265.95L376.65,265.92L376.89,262.61L377.38,262L377.87,262.45L378.12,262.81L378.61,262.94L378.86,262.7L379.1,261.69L379.84,257.28L380.09,258.24L380.33,257.6L380.58,255.64L380.82,260.48L381.07,259.39L381.56,259.77L381.81,259.77L382.54,260.02L382.79,261.32L383.53,258.9L383.77,259.27L384.02,258.19L385.25,258.68L385.49,257.85L386.47,256.85L386.72,256.45L386.97,257.34L387.46,256.73L387.7,256.96L388.19,257.78L388.44,256.27L388.68,256.54L388.93,255.57L389.67,254.97L389.91,246.22L390.4,246.41L391.39,241.88L391.63,243.19L391.88,241.72L392.12,245.59L392.86,244.41L393.11,245.7L394.09,242.85L394.34,242.75L394.58,243.46L394.83,242.87L395.07,242.01L395.56,246.69L396.06,245.75L396.3,246.12L396.55,247.11L396.79,245.36L397.04,245.04L399.25,236.06L399.5,225.59L399.74,229.83L399.99,221.82L400.23,217.4L400.48,213.22L400.72,215.57L400.97,221.8L401.22,222.99L401.46,213.28L402.2,219.24L402.44,217.38L402.69,216.12L402.94,215.55L403.18,209.23L403.43,206L403.92,207.53L404.16,211.6L404.9,206.75L405.15,213.28L405.39,218.87L405.88,216.47L406.13,214.43L406.62,219.51L406.87,215.63L407.11,216.71L407.36,213.9L407.6,213.2L407.85,208.69L409.32,200.68L409.57,194.67L410.8,168.68L411.04,187.34L411.29,176.69L411.53,178.88L411.78,190.26L412.03,191.82L412.27,191.25L412.52,180.57L413.01,190.1L413.25,187.21L413.5,185.25L413.99,176.31L414.24,181L414.48,189.83L414.73,185.51L414.97,189.4L415.22,201.7L415.47,195.63L415.71,209.25L415.96,207.18L416.2,197.65L416.69,196.99L417.68,205.16L417.92,204.54L418.17,204.61L418.41,209.01L418.91,208.41L419.15,207.49L420.62,187.88L420.87,191.39L421.12,187.42L421.61,189.64L421.85,193.83L422.1,191.29L422.34,193.07L422.59,197.01L422.84,206.63L423.33,204.01L423.57,204.73L424.06,197.91L424.31,199.75L424.56,205.5L424.8,204.99L425.05,201.71L426.52,212.05L426.77,211.21L427.26,209.92L427.5,204.81L427.75,201.88L428.24,202.86L428.49,204.94L428.73,203.3L429.22,204.14L429.47,205.91L429.72,205.81L429.96,203.67L430.7,203.83L430.94,203.64L431.68,201.58L431.93,202.55L432.17,204.22L432.42,204.33L432.66,208.14L433.4,224.06L433.65,222.99L433.89,222.72L434.14,224.26L434.38,221.65L434.63,220.89L434.88,220.89L435.12,222.61L435.61,222.93L435.86,225.26L436.59,217.81L436.84,218.31L437.09,221.42L437.82,220.03L438.07,221.7L439.05,224.02L439.3,221.51L439.54,221.44L439.79,223.13L440.28,229.06L440.53,217.4L441.51,210.19L441.75,212.61L442,212.74L442.25,212.2L442.49,211.43L442.74,212.27L442.98,210.49L443.23,210.59L443.47,209.83L443.72,211.4L443.97,215.35L444.46,212.67L444.7,215.28L445.19,214.82L445.44,216.05L447.9,234.02L448.14,232.75L448.39,231.98L449.13,227.01L449.37,228.57L449.62,229.85L450.35,231.91L450.6,230.45L451.34,229.03L451.58,230.56L452.81,233.23L453.06,232.81L453.55,239.13L453.79,233.31L454.53,234.45L454.78,231.53L455.51,234.1L455.76,233.93L456,233.49L456.5,231.59L456.74,233.04L456.99,233.63L457.23,233.51L457.48,235.79L458.71,224.51L458.95,225.6L459.2,227.56L459.44,224.22L459.69,224.87L459.94,223.31L460.18,223.78L460.43,214.24L460.92,215.3L461.16,212.77L461.9,215.6L462.15,214.59L462.39,215.12L462.64,218.34L462.88,218.15L463.13,219.05L464.36,206.62L464.6,208.85L464.85,208.12L465.34,207.92L465.59,208.91L466.82,197.25L467.06,199.64L468.04,191.71L468.29,197.49L468.53,197.69L468.78,199.73L469.03,194.7L469.27,200.95L469.52,201.7L470.25,197.31L470.5,200.94L471.73,214.11L471.97,214.17L472.96,209.18L473.2,207.31L474.43,221.17L474.68,251.58L474.92,246.08L475.41,247.67L475.66,251.73L476.4,240.06L476.89,240.63L477.13,243.77L478.12,234.68L478.36,238.04L478.85,242.66L479.1,238.11L479.35,237.8L479.59,236.2L480.82,227.08L481.07,228.17L481.31,226.64L481.56,226.9L481.8,231.53L482.29,230.91L482.54,231.46L482.79,231.58L483.03,233.96L483.28,229.09L483.52,229.38L483.77,226.59L484.01,228.08L484.26,231.04L484.5,231.17L484.75,228.14L485.98,221.18L486.22,220.95L487.21,195.37L487.45,196.64L487.7,197.44L488.19,194.87L488.44,186.56L488.93,190.15L489.17,198.04L489.42,201.42L489.91,199.04L490.16,189.68L490.4,194.09L490.89,190.31L491.14,189.1L491.38,189.03L491.63,192.48L492.61,198.7L492.86,197.49L493.1,198.21L493.35,190.32L493.6,190.27L493.84,191.34L494.58,182.3L494.82,188.78L495.32,186.09L495.81,187.2L496.05,186.5L496.79,184.96L497.04,191.7L497.53,189.71L497.77,191.32L498.02,190.61L498.26,189.63L498.51,190.02L498.76,190.87L499.49,192.26L499.74,187.5L499.98,187.99L500.23,191.46L500.97,195.55L501.21,194.15L501.46,193.46L501.95,192.74L502.44,194.6L502.69,193.61L502.93,194.18L503.18,189.76L503.42,190.69L503.67,187.6L504.41,190.14L504.65,189.2L505.88,191.39L506.13,190.97L506.37,190.27L506.62,191.34L506.86,188.31L507.35,184.13L507.6,184.63" style="vector-effect: non-scaling-stroke; fill: none; stroke: rgb(255, 110, 88); stroke-opacity: 1; stroke-width: 2px; opacity: 1;"/></g><g class="points"/><g class="text"/></g></g></g><g class="overplot"><g class="xy2" transform="translate(80, 100)" clip-path="url('#clip3e5626xy2plot')"><g class="scatterlayer mlayer"><g class="trace scatter trace8b35fa" style="stroke-miterlimit: 2; opacity: 1;"><g class="fills"/><g class="errorbars"/><g class="lines"><path class="js-line" d="M0,274.58L0.74,275.77L0.98,271.67L1.97,287.11L2.21,278.71L2.46,275.54L2.95,278.36L3.19,263.84L4.42,280.92L4.67,282.62L4.91,284.13L5.16,283.76L5.41,291.14L5.65,291.47L5.9,283.66L6.14,280.14L6.39,281.47L6.63,288.61L6.88,272.33L7.37,283.5L7.62,281.74L7.86,286.42L8.11,277.78L8.35,285.99L8.6,284.66L8.84,286.71L9.09,285.98L9.34,278.69L9.58,278.04L9.83,280.97L10.07,281.67L10.32,274.04L10.56,267.88L10.81,274.13L11.06,289.65L11.79,274.93L12.04,276.71L12.28,271.25L12.53,275.75L12.78,273.79L13.02,263.45L13.27,263.3L13.51,265.14L13.76,265.02L14,272.72L14.5,260.84L14.74,265.17L14.99,269.19L15.48,261.74L15.72,270.14L15.97,265.89L16.22,271.24L16.46,266.08L16.71,270.86L17.44,275.04L17.94,267.56L18.43,275.09L18.67,265.24L19.41,284.96L19.66,279.88L19.9,270.88L20.88,279.66L21.13,279.58L21.38,276.75L22.36,268.4L22.6,278.06L23.34,265.29L23.59,275.17L24.57,280.97L24.81,274.45L25.06,270.08L25.55,273.59L25.8,273.12L26.53,266.75L26.78,269.83L27.76,289.57L28.01,273.43L28.5,280L28.75,268.5L29.97,293.3L30.22,292.78L31.2,267.79L31.45,281.18L31.69,281.75L31.94,274.61L33.17,289.88L33.41,283.87L34.4,278.42L34.64,294.63L35.87,275.15L36.12,285.41L36.61,283.15L36.85,278.46L37.1,284.17L37.59,281.23L37.84,279.2L38.08,291.56L38.33,282.87L38.57,271.78L39.07,282.79L39.31,281.79L39.56,269.48L40.05,293.22L40.29,281.42L40.54,274.73L41.77,286.88L42.01,279.45L42.5,271.09L42.75,278.99L43.24,290.57L43.73,290.31L43.98,285.04L44.47,278.07L44.72,290.21L44.96,295.14L45.21,277.97L45.7,286.77L45.94,284.06L46.19,284.15L46.44,290.29L46.68,283.17L46.93,279.1L47.17,285.36L47.42,271.89L48.65,284.04L48.89,284.5L49.14,275.79L49.63,280.58L49.88,284.74L50.12,286.55L50.37,283.45L50.61,278.7L51.1,283.32L51.35,276.49L52.09,292.16L52.33,287.97L52.58,280.06L53.56,291.34L53.81,286.14L54.79,272.98L55.04,274.65L55.77,279.95L56.02,275.59L56.26,283.94L56.75,277.91L57,282.37L57.25,282.05L57.49,272.97L57.74,270.92L57.98,273.88L58.23,276.27L58.47,277.45L58.72,287.86L60.19,274L60.44,304L61.42,271.29L61.67,276.44L62.16,284.5L62.41,273.99L63.88,286.04L64.13,276.58L64.37,284.86L64.86,283.7L65.11,274.35L65.85,288.88L66.09,285.79L66.34,282.33L66.58,279.27L66.83,280.85L67.07,284.39L67.32,279.02L67.81,281.93L68.06,282.02L68.3,277.57L68.79,279.25L69.04,288.49L69.53,273.42L69.78,277.62L70.02,281.72L70.27,279.25L70.51,292.78L71.01,282.18L71.25,283.15L71.5,285.83L71.99,292.75L72.23,284.05L72.48,294.81L72.72,279.83L72.97,277.69L73.46,276.9L74.2,295.48L74.44,283.07L74.94,288.95L75.18,284.72L75.43,291.43L75.67,288.25L76.16,282.28L76.41,277.15L76.66,286.38L76.9,288.13L77.39,283.13L77.64,289.05L78.87,279.73L79.11,280.14L79.36,280.51L79.6,290.91L79.85,291.74L80.1,280.17L80.59,280.11L80.83,289.55L81.32,284.1L81.57,287.09L81.82,280.91L82.06,280.59L82.31,273.88L83.04,298.93L83.29,278.88L83.78,268.22L84.03,276.41L84.27,283.69L84.76,280.73L85.01,278.5L85.5,286.11L85.75,283.77L85.99,279.21L86.24,275.07L86.48,290.82L87.22,272.18L87.47,277.22L87.71,284.34L87.96,283.61L88.2,284.24L88.45,274.49L89.68,286.11L89.92,275.52L90.17,274.16L90.41,277.69L90.66,274.36L90.91,278.51L91.15,285.99L91.89,273.04L92.13,273.39L92.38,286.02L93.12,279.55L93.36,282.32L93.61,274.73L94.1,277.45L94.35,277.06L94.59,277.78L94.84,283.18L95.08,277.95L95.57,279.96L95.82,281.23L96.07,284.04L96.31,275.64L96.8,276.88L97.05,280.82L97.29,276.08L97.54,282.48L97.79,279.45L98.03,278.89L98.77,274.18L99.01,278.85L99.26,278.34L99.51,279.69L99.75,280.84L100,276.87L100.24,274.31L100.49,288.2L100.73,278.94L101.23,279.64L101.47,283.9L101.96,280.45L102.21,282.4L102.45,277.08L102.95,281.51L103.19,278.21L103.44,286.26L103.68,281.06L103.93,268.57L104.17,277.15L104.42,268.61L104.66,267.22L104.91,284.54L105.4,277.62L105.65,274.03L105.89,280.9L106.14,272.3L106.38,274.89L107.61,270.36L107.86,268.47L108.1,281.86L108.35,274.67L108.6,281.02L108.84,286.88L109.33,274.13L109.58,281.69L109.82,283.22L110.56,275.12L110.81,280.18L111.05,282.31L111.3,279.76L111.79,276.57L112.04,282.92L112.53,281.37L112.77,274.46L113.02,276.47L113.26,287.88L114.25,276.67L114.49,276.55L115.48,289.68L115.72,286.97L115.97,276.91L116.46,278.33L116.7,285.87L117.2,279.14L117.69,282.65L118.42,282.98L118.67,274.04L118.92,291.13L119.65,265.3L120.14,268.37L120.39,282.94L120.88,282.14L121.13,277.53L121.37,278.84L121.62,287.71L122.85,274.61L123.09,279.73L123.83,290.25L124.07,289.75L124.32,278.01L125.55,290.63L125.79,287.08L126.04,284.74L126.53,280.73L126.78,285.64L127.02,281.04L127.51,283.71L127.76,281.96L128.74,295.78L128.99,287.54L129.48,290.75L129.73,288.72L129.97,285.12L130.22,280.01L130.46,290.89L130.71,286.3L130.95,290.56L131.2,292.35L131.69,268.71L131.94,281.91L132.18,279.33L132.67,288.28L133.17,280.71L133.41,280.61L133.66,285.2L133.9,275.76L134.15,290.66L134.39,290.22L134.64,289.16L134.88,282.92L135.13,285.06L135.38,279.64L135.62,285.78L135.87,278.25L136.11,283.14L136.36,281.62L136.6,280.23L136.85,282.45L137.1,281.53L137.34,285.89L138.32,274.92L138.57,278.11L139.06,276.84L139.31,279.89L139.55,273.29L139.8,281.71L140.04,279.13L140.29,279.51L140.78,280.82L141.27,273.79L141.52,275.05L142.26,279.41L142.5,276.64L142.75,278.9L142.99,273.36L143.73,278.86L143.98,274.88L144.71,271.15L144.96,274.81L145.94,280.45L146.19,290.77L146.43,291.96L146.68,285.2L147.42,270.46L147.66,273.43L147.91,285.08L148.4,274.61L148.64,281.4L148.89,282.57L149.14,273.31L149.38,285.69L149.63,281.87L149.87,281.44L150.36,278.6L150.61,295.99L150.85,289.86L151.1,283.16L151.84,301.42L152.08,297.41L152.33,296.58L153.31,274.57L153.56,284.56L153.8,295.31L154.05,288.52L154.29,280.15L154.54,285.94L154.79,276.44L155.03,281.27L155.28,285.54L156.26,272.72L156.51,279.52L156.75,286.14L157,285.38L157.24,278.11L157.49,285.43L157.73,273.69L157.98,274.87L158.23,276.67L158.47,290.88L158.96,279.5L159.21,283.27L159.45,291.47L159.7,285.76L160.19,289.96L160.44,289.53L160.93,281.14L161.42,283.34L161.67,285.29L161.91,289.23L162.16,283.72L162.4,279.03L163.14,288.31L163.39,281.86L163.63,281.34L163.88,287.65L164.12,274.04L164.37,283.24L164.61,289.54L164.86,292.62L165.11,286.65L165.35,291.64L165.84,287.4L166.09,276.46L166.58,286.8L166.82,284.23L167.07,287.25L167.32,287.14L167.56,279.7L168.05,287.88L168.3,286.31L168.54,279.73L168.79,297.42L169.28,291.11L169.53,283.69L170.51,296.09L170.76,290.54L171.74,281.51L171.98,283.59L172.23,283.82L172.48,288.21L172.72,279.95L173.21,285.49L173.46,284.54L173.7,289.21L173.95,280.38L174.2,289.18L174.44,279.06L174.69,283.3L175.42,283.06L175.67,281.29L176.16,279.86L176.41,287.81L176.65,282.26L177.14,281.1L177.39,288.37L177.64,283.28L178.37,276.71L178.62,278.79L178.86,281.2L179.11,294.4L179.6,282.09L179.85,287.86L180.58,281.7L180.83,292.74L181.57,280.31L181.81,287.39L182.3,285.58L182.55,293.55L183.04,279.4L183.29,283.05L183.53,286.7L183.78,297.48L184.02,286.17L184.27,287.59L184.51,287.14L184.76,287.83L185.01,285.36L185.99,278.85L186.23,284.43L186.48,273L186.97,281.57L187.22,277.36L187.71,286.41L187.95,283.23L188.2,281.49L188.69,273.54L188.94,276.1L189.18,275.9L189.92,273.01L190.17,280.42L190.41,280.42L190.66,279.14L190.9,274.62L191.15,279.78L191.39,283.9L191.64,273.63L192.13,280.37L192.38,276.09L192.62,272.75L192.87,274.52L193.11,279.44L193.36,277.5L193.61,285.16L194.59,274.34L194.83,282.71L195.08,283.11L195.33,276.26L195.57,267.61L196.06,274.2L196.31,273.31L196.8,270.3L197.29,279.79L197.54,276.97L198.03,281.94L198.27,274.56L198.52,281.87L199.01,279.25L199.26,277.5L199.75,282.14L199.99,280.77L200.24,278.55L200.48,277.18L200.73,279.49L200.98,270.81L201.47,280.59L201.71,275.09L201.96,275.85L202.2,277.72L202.45,271.55L203.19,281.4L203.43,279.25L203.68,274.89L203.92,278.91L204.42,276.59L204.66,268.28L204.91,282.97L205.4,275L205.64,274.14L205.89,275.15L206.14,273.28L206.38,271.24L206.63,277.86L207.12,275.62L207.36,273.91L207.61,275.4L207.86,271.47L208.35,271.27L208.59,278.06L208.84,273.76L209.33,274.15L209.58,268.07L209.82,273.54L210.07,277.7L210.31,275.85L210.56,269.33L210.8,264.73L211.05,268.69L211.3,273.79L211.79,272.17L212.03,274.67L212.28,275.8L212.52,270.35L213.75,282.02L214,276.77L214.24,275.41L214.49,278.93L215.23,273.73L215.47,280.13L216.21,273.83L216.45,280.83L216.7,281.9L216.95,280.13L217.19,277.01L217.44,281L217.68,274.81L217.93,274.91L218.42,270.13L218.67,274.49L218.91,275.5L219.16,268.33L219.65,266.71L220.39,278.25L220.63,273.3L220.88,273.28L221.12,264.73L221.37,267.94L221.86,265.91L222.11,263.14L222.35,265.75L222.6,252.03L222.84,260.81L223.09,250L223.33,242.56L223.83,264.33L224.32,258.33L224.56,255.66L224.81,255.05L225.05,248.73L225.79,257.91L226.04,250.58L226.28,242.21L226.53,244.58L226.77,251.59L227.02,251.76L227.27,253.42L227.76,238.64L228,240.81L228.25,245.79L228.49,244.07L228.74,248.06L228.99,247.2L229.23,254.71L229.97,240.88L230.21,245.03L230.46,251.1L231.44,255.66L231.69,251.91L231.93,250.77L232.18,261.02L232.42,265.17L232.67,261.17L232.92,257.05L233.65,258.15L233.9,256.38L234.14,264.72L234.64,260.89L234.88,255.91L235.86,262.18L236.11,254.55L236.6,250.96L236.85,249.02L237.34,246.28L237.58,255.95L238.08,244.57L238.32,248.22L238.57,250.21L238.81,250.99L239.06,243.86L239.3,259.05L239.8,246.92L240.04,229.33L241.27,250.28L241.52,239.62L241.76,238.74L242.01,245.18L243.24,222.17L243.48,224.76L243.73,229.53L244.22,234.48L244.46,246.33L244.71,247.94L244.96,240.69L245.45,236.35L245.69,238.02L245.94,241.91L246.18,245.89L246.67,241.65L246.92,235.95L247.17,235.07L247.41,230.4L247.66,227.6L247.9,241.53L248.15,245.17L248.39,238.14L248.64,242.33L248.89,238.26L249.62,256.66L249.87,254.31L250.11,246.44L250.36,248.7L250.61,242.21L251.1,225.16L251.34,245.02L251.59,250.8L251.83,238.55L253.31,252.63L253.55,243.98L253.8,244.69L254.05,241.97L254.29,238.56L254.54,244.54L254.78,250.53L255.77,233.56L256.01,236.17L256.75,243.84L256.99,238.11L257.24,236.07L257.49,239.02L257.73,220.91L257.98,217.49L258.22,238.18L258.47,240.89L258.71,231.45L259.45,239.6L259.7,233.09L260.19,235.63L260.43,233.31L260.68,228.72L260.93,236.98L261.17,237.86L261.66,251.95L261.91,251.1L262.15,238.94L262.89,214.06L263.14,230.86L263.63,245.66L263.87,234.59L264.12,236.85L264.36,228.52L264.86,230.66L265.1,234.45L265.35,214.85L265.84,228.7L266.08,223.65L266.58,220.99L266.82,237.82L267.07,236.01L267.31,223.97L267.56,222.25L267.8,226.19L268.3,231.76L268.54,228.63L268.79,194.31L269.03,199.85L269.28,181.1L269.52,116.24L270.02,175.36L270.26,191.98L270.75,180.99L271,182.05L271.24,143.72L271.49,62.31L271.74,100.2L271.98,154.97L272.23,151.37L272.47,134.97L272.72,131.05L272.96,139.47L273.46,171.83L273.95,163.29L274.19,151.1L274.68,88.61L274.93,126.42L275.18,45.4L275.42,138.02L275.67,170.07L275.91,173.61L276.16,165.06L276.4,157.05L276.9,157.21L277.14,159.34L277.39,172.25L277.63,156.17L277.88,106.96L278.37,48.89L278.61,58.53L278.86,81.06L279.11,97.84L279.6,94.7L279.84,82.7L280.09,83.66L280.33,123.62L280.83,151.16L281.07,139.14L281.32,39.44L281.56,16L281.81,107.07L282.55,173.04L282.79,148.36L283.04,153.38L283.53,156.43L283.77,169.07L284.02,186.97L284.51,173.59L284.76,160.88L285,159.52L285.25,132.25L285.49,112.99L285.74,185.94L285.99,189.81L286.23,143.25L286.48,126.75L286.72,171.44L287.71,208L288.2,202.94L288.44,184.78L288.69,182.28L288.93,194.23L289.43,209.96L289.67,204.38L289.92,193.6L291.15,222.08L291.39,207.05L291.64,210.11L291.88,209.9L292.13,202.05L292.37,203.04L292.62,219.52L292.87,223.97L293.11,207.15L293.6,200.85L293.85,211.59L294.09,200.41L294.34,232.25L294.58,232.28L294.83,220.87L295.08,220.18L295.32,211.28L295.57,208.89L295.81,223.32L296.06,235.31L296.3,216.52L296.55,219.19L297.78,248.79L298.02,250.17L299.25,232.64L299.5,251.3L300.24,226.65L300.73,226.81L300.97,229.15L301.46,245.54L301.71,232.67L301.96,231.43L302.2,231.97L302.45,216.71L302.69,217.82L302.94,241.82L303.43,230.14L303.68,218.7L303.92,220.6L304.17,217.21L304.41,209.7L304.66,231.87L305.15,219.42L305.4,197.38L306.38,231.71L306.62,224.78L307.61,205.01L307.85,216.77L308.34,238.73L308.59,229.69L308.84,222.33L309.08,224.1L309.33,222.32L309.57,221.08L309.82,241.04L310.31,225.46L310.55,225.34L311.54,246.02L311.78,241.73L312.03,236.18L312.27,238.29L312.52,229.77L313.5,256.59L313.75,243.52L314.49,228.34L314.73,236.64L314.98,246.85L315.47,238.02L315.71,239.86L316.21,236.06L316.45,239.8L316.7,251.63L316.94,250.91L317.19,245.68L317.43,233.61L317.93,237.44L318.17,246.41L318.42,256.55L318.66,255.01L318.91,243.15L319.15,239.19L319.4,247.59L319.89,240.33L320.14,258.77L321.12,238.6L321.37,242.66L321.61,247.77L322.1,257.74L322.35,242.05L322.84,241.73L323.09,244.06L323.33,247.94L323.82,257.14L324.07,246.2L324.56,251.2L324.81,250.57L325.05,248.33L325.54,259.79L325.79,244.57L326.03,228.07L326.52,243.22L326.77,243.63L327.02,258.51L327.26,257.34L327.51,238.4L327.75,228.62L328.24,236.66L328.49,245.29L328.74,257.24L329.23,245.7L329.47,246.93L329.72,246.14L329.96,249.44L330.21,243.47L330.46,254.44L330.7,257.8L331.44,242.4L331.68,243.62L331.93,244.44L332.42,261.35L332.67,249.76L332.91,238.41L334.14,260.89L334.39,255.51L334.88,245.82L335.12,251.79L335.37,250.61L335.62,254.23L335.86,260.22L336.11,245.82L336.35,239.1L336.6,246.07L336.84,249.96L337.09,248.82L337.34,248.92L337.58,253.35L338.07,240.69L338.32,244.07L338.56,247.68L339.3,259.8L339.55,251.28L340.04,248.16L340.28,248.19L340.53,252.11L341.02,261.76L341.27,255.99L341.51,251.19L342.25,233.09L342.49,255.04L342.74,258.13L342.99,253.8L343.23,246.01L343.48,243.96L343.72,246.15L343.97,250.34L344.21,256.84L344.46,255.23L344.71,247.52L344.95,247.54L345.2,245.76L345.44,243.97L345.69,253.16L346.18,258.54L346.43,245.81L347.65,264.62L347.9,262.96L348.15,256.68L348.64,245.15L348.88,251.39L349.13,251.66L349.37,255.92L349.62,252.85L349.87,244.31L351.34,263.67L351.59,258.05L352.08,246.45L352.32,252.98L352.57,253.11L352.81,266.22L353.06,266.3L353.31,255.9L353.8,258.48L354.04,262.78L354.53,266.49L354.78,266.19L355.03,261.17L355.27,265.96L355.52,255.41L356.25,273.11L356.5,270.73L356.75,255.34L356.99,242.42L357.24,260.33L357.48,264.68L357.73,263.94L357.97,264.08L358.22,250.12L358.71,249.46L358.96,243.23L359.69,261.5L359.94,260.05L360.18,255.69L360.43,254.78L360.68,249.61L361.17,247.38L361.41,259.32L361.9,258.3L362.15,255.15L362.64,255.59L362.89,254.68L363.38,260.33L363.62,245.83L363.87,254.18L364.12,241.24L364.36,242.38L364.61,242.26L364.85,255.9L365.1,256.61L365.34,249.46L366.08,259.4L366.33,251.77L366.82,263.25L367.31,258.61L367.56,245.79L368.29,259.81L368.54,251.33L368.78,250.54L369.03,253.19L369.52,251.98L369.77,259.61L370.26,261.1L370.5,257.36L371,252.71L371.24,254.26L371.49,258.79L371.98,263.95L372.22,261.96L372.47,254.69L373.45,267.6L373.7,263.74L374.19,263.1L374.43,257.17L374.68,258.14L374.93,263.13L375.42,271.75L375.66,271.36L375.91,263.52L376.15,262.14L376.4,264.24L376.65,253.33L376.89,267.63L377.38,263.7L377.63,264.36L377.87,264.4L378.12,265.57L378.37,263.96L378.61,269.51L378.86,267.68L379.1,252.79L379.84,257.49L380.09,256.63L380.33,261.55L381.07,251.93L381.31,257.08L381.56,255.25L381.81,255.76L382.05,258.25L382.3,262.83L382.54,258.01L382.79,255.14L383.03,252.84L383.28,257.98L383.53,250.06L383.77,261.31L384.02,265.49L384.51,255.3L384.75,260.55L385,267.86L385.25,268.37L385.49,259.79L385.74,271.82L385.98,255.61L386.23,256.42L386.47,253.03L386.72,255.67L386.97,261.12L387.46,270.45L387.7,262.56L387.95,258.55L388.19,253.74L388.68,257.75L388.93,268.77L389.18,267.92L389.42,259.37L389.91,228.61L390.16,246.67L390.4,251.97L390.9,258.08L391.14,249.44L392.37,271.61L392.62,269.95L392.86,266.57L393.11,267.4L393.35,262.95L393.6,252.28L393.84,257.09L394.09,264.62L394.34,266.11L394.58,258.01L394.83,249.96L395.07,252.37L395.32,259.42L395.81,272.96L396.06,268.08L396.3,266.09L396.79,269.38L397.28,254.73L397.53,266.36L397.78,266.28L398.02,262.05L399,253.27L399.25,231.24L399.5,245.67L399.74,224.18L399.99,221.9L400.23,221.7L400.48,223.44L400.97,255.37L401.46,245.4L401.71,244.56L401.95,248.19L402.2,246.57L402.44,243.41L402.69,255.79L402.94,241.3L403.18,237.28L403.92,230.43L404.16,244.62L404.41,254.54L404.9,249.22L405.15,248.27L405.39,247.27L405.64,252.86L405.88,251.06L406.13,257.12L406.37,260.52L406.62,247.13L406.87,250.68L407.11,244.01L407.36,242.07L407.6,241.97L407.85,247.48L408.59,240.74L408.83,244.86L409.08,247.2L409.32,233.79L409.57,214.75L409.81,241.07L410.06,242.44L410.55,171.45L410.8,208.84L411.53,241.52L411.78,228.2L412.03,222.82L413.25,247.91L413.5,237.62L413.99,227.78L414.24,234.3L414.48,237.11L414.73,254.63L415.71,232.2L415.96,236.61L416.69,248.06L416.94,242.14L418.17,252.84L418.41,257.03L419.15,250.13L419.4,255.57L419.64,251.3L419.89,259.77L420.13,252.3L420.38,233.61L421.36,248.6L421.61,255.35L421.85,259.33L422.1,256.48L422.34,253.06L423.08,247.06L423.33,262.15L423.57,266.69L423.82,260.28L424.06,258.98L424.31,253.5L424.56,258.34L424.8,260.05L425.05,264.99L425.29,261.86L425.54,258.59L426.52,254.54L426.77,268.96L427.01,269.9L427.26,254.53L427.75,255.55L428,252.28L428.24,256.08L428.73,265.45L428.98,257.43L429.22,257.14L430.21,268.23L430.45,267.77L430.7,264.54L431.19,258.82L431.44,259.98L431.68,261.13L432.17,267.68L432.42,263.61L432.66,255.44L433.65,266.3L433.89,264.85L434.38,255.28L434.63,260.79L434.88,257.13L435.37,268.88L435.61,267.45L435.86,262.22L436.35,257.55L436.59,259.75L436.84,266.59L437.09,273.37L437.58,266.63L437.82,262.69L438.81,271.09L439.05,262.4L439.54,266.34L440.03,266.17L440.28,252.12L440.53,244.94L440.77,254.87L441.02,255.84L442.25,260.27L442.49,259.7L443.23,252.42L443.47,258.53L443.97,267.7L444.21,262.81L444.46,263.31L444.95,255.96L445.19,261.82L445.44,261.14L445.69,267.14L446.18,260.9L446.42,263.63L447.16,258.08L447.41,264.77L447.65,268.25L447.9,254.67L448.88,266.13L449.13,261.58L449.37,268.31L449.86,263.22L450.11,260.4L451.09,273.09L451.34,269.29L452.32,265.28L452.56,273.47L452.81,276.96L453.06,273.67L453.3,268.6L453.79,263.4L454.04,266.48L454.28,266.56L454.53,270.21L454.78,261.94L455.27,269.96L455.51,267.01L455.76,265.65L456,265.97L456.25,268.75L456.5,265.13L456.74,268.7L456.99,269.94L457.23,264.73L457.48,265.84L457.72,272.44L458.71,254.83L458.95,260.71L459.2,256.23L459.44,261.31L459.69,267.08L459.94,264.92L460.18,249.63L460.43,252.09L460.67,251.68L460.92,248.82L461.9,265.71L462.15,259.01L462.39,260.7L462.88,267.08L463.13,264.7L463.38,257.6L463.62,250.81L464.11,253.27L464.36,257.54L465.1,251.86L465.34,253.63L465.59,244.78L465.83,246.27L466.08,243.29L466.32,251.41L467.31,238.34L467.55,244.35L467.8,244.96L468.04,249.44L468.29,252.13L468.53,250.11L468.78,244.07L469.52,254.32L469.76,260.87L470.75,251.39L470.99,251.53L471.24,258.83L471.48,261.7L471.73,260.57L471.97,253.36L472.47,258.09L472.71,256.66L472.96,269.3L473.69,261.67L473.94,267.23L474.43,247.29L474.68,229.72L475.17,259.29L475.66,255.55L475.91,257.24L476.4,247.16L476.64,255.54L476.89,260.14L477.13,255.19L477.63,256.36L477.87,259.05L478.12,260.82L478.61,260.07L478.85,255.67L479.1,256.8L479.35,255.29L479.59,241.93L480.33,259.08L480.57,244.91L480.82,243.07L481.07,248.04L481.56,249.4L481.8,252.79L482.05,250.43L482.29,258.78L482.54,253.52L482.79,264.32L483.52,254.54L483.77,264.82L484.01,261.58L484.26,266.5L484.5,263.61L484.75,249.74L485.24,257.8L485.49,256.08L485.73,252.45L485.98,252.35L486.22,240.04L486.47,235.46L486.72,253.82L487.94,247.22L488.19,228.63L488.68,244.89L488.93,228.25L489.17,216.18L489.42,242.3L489.66,244.72L489.91,229.18L490.4,251.79L490.89,247.16L491.14,243.43L491.38,243.83L491.63,246.42L492.12,254L492.61,252.77L492.86,250.94L493.1,253.93L493.35,246.76L494.09,255.41L494.33,247.84L494.58,243.18L494.82,256.95L495.81,251.75L496.05,251.57L496.3,255.57L496.54,252.19L496.79,250.73L497.28,267.58L497.53,262.28L497.77,254.2L499,267.1L499.25,264.94L499.49,256.26L499.74,256.58L499.98,261.09L500.72,271.41L500.97,264.58L501.46,266.65L501.7,260.39L502.19,259.62L502.69,267.08L502.93,259.79L503.18,259.1L503.42,223.5L504.16,262.79L504.41,260.25L504.65,258.02L504.9,259.68L505.14,271.09L505.39,274.6L505.63,270.68L505.88,267.23L506.13,273.34L506.37,268.35L506.62,262.5L506.86,263.72L507.11,254.45L507.35,259.98L507.6,258.19" style="vector-effect: non-scaling-stroke; fill: none; stroke: rgb(33, 204, 203); stroke-opacity: 1; stroke-width: 2px; opacity: 1;"/></g><g class="points"/><g class="text"/></g></g></g></g><path class="xlines-above crisp" d="M79,420.5H588.5999999999999" style="fill: none; stroke-width: 1px; stroke: rgb(255, 255, 255); stroke-opacity: 1;"/><path class="ylines-above crisp" d="M79.5,100V420" style="fill: none; stroke-width: 1px; stroke: rgb(255, 255, 255); stroke-opacity: 1;"/><g class="overlines-above"><path class="xy2-x crisp" d="M0,0" style="fill: none;"/><path class="xy2-y crisp" d="M588.0999999999999,100V420" style="fill: none; stroke-width: 1px; stroke: rgb(255, 255, 255); stroke-opacity: 1;"/></g><g class="xaxislayer-above"><g class="xtick"><text text-anchor="middle" x="0" y="435.4" transform="translate(88.35,0)" style="font-family: 'Gravitas One'; font-size: 12px; fill: rgb(42, 63, 95); fill-opacity: 1; white-space: pre;">2015</text></g><g class="xtick"><text text-anchor="middle" x="0" y="435.4" transform="translate(178.03,0)" style="font-family: 'Gravitas One'; font-size: 12px; fill: rgb(42, 63, 95); fill-opacity: 1; white-space: pre;">2016</text></g><g class="xtick"><text text-anchor="middle" x="0" y="435.4" transform="translate(267.95,0)" style="font-family: 'Gravitas One'; font-size: 12px; fill: rgb(42, 63, 95); fill-opacity: 1; white-space: pre;">2017</text></g><g class="xtick"><text text-anchor="middle" x="0" y="435.4" transform="translate(357.63,0)" style="font-family: 'Gravitas One'; font-size: 12px; fill: rgb(42, 63, 95); fill-opacity: 1; white-space: pre;">2018</text></g><g class="xtick"><text text-anchor="middle" x="0" y="435.4" transform="translate(447.31,0)" style="font-family: 'Gravitas One'; font-size: 12px; fill: rgb(42, 63, 95); fill-opacity: 1; white-space: pre;">2019</text></g><g class="xtick"><text text-anchor="middle" x="0" y="435.4" transform="translate(536.99,0)" style="font-family: 'Gravitas One'; font-size: 12px; fill: rgb(42, 63, 95); fill-opacity: 1; white-space: pre;">2020</text></g></g><g class="yaxislayer-above"><g class="ytick"><text text-anchor="end" x="76.6" y="4.199999999999999" transform="translate(0,405.57)" style="font-family: 'Gravitas One'; font-size: 12px; fill: rgb(42, 63, 95); fill-opacity: 1; white-space: pre;">0</text></g><g class="ytick"><text text-anchor="end" x="76.6" y="4.199999999999999" transform="translate(0,359.53)" style="font-family: 'Gravitas One'; font-size: 12px; fill: rgb(42, 63, 95); fill-opacity: 1; white-space: pre;">10k</text></g><g class="ytick"><text text-anchor="end" x="76.6" y="4.199999999999999" transform="translate(0,313.49)" style="font-family: 'Gravitas One'; font-size: 12px; fill: rgb(42, 63, 95); fill-opacity: 1; white-space: pre;">20k</text></g><g class="ytick"><text text-anchor="end" x="76.6" y="4.199999999999999" transform="translate(0,267.45)" style="font-family: 'Gravitas One'; font-size: 12px; fill: rgb(42, 63, 95); fill-opacity: 1; white-space: pre;">30k</text></g><g class="ytick"><text text-anchor="end" x="76.6" y="4.199999999999999" transform="translate(0,221.41)" style="font-family: 'Gravitas One'; font-size: 12px; fill: rgb(42, 63, 95); fill-opacity: 1; white-space: pre;">40k</text></g><g class="ytick"><text text-anchor="end" x="76.6" y="4.199999999999999" transform="translate(0,175.37)" style="font-family: 'Gravitas One'; font-size: 12px; fill: rgb(42, 63, 95); fill-opacity: 1; white-space: pre;">50k</text></g><g class="ytick"><text text-anchor="end" x="76.6" y="4.199999999999999" transform="translate(0,129.32999999999998)" style="font-family: 'Gravitas One'; font-size: 12px; fill: rgb(42, 63, 95); fill-opacity: 1; white-space: pre;">60k</text></g></g><g class="overaxes-above"><g class="xy2-x"/><g class="xy2-y"><g class="y2tick"><text text-anchor="start" x="590.9999999999999" y="4.199999999999999" transform="translate(0,358.54)" style="font-family: 'Gravitas One'; font-size: 12px; fill: rgb(42, 63, 95); fill-opacity: 1; white-space: pre;">0</text></g><g class="y2tick"><text text-anchor="start" x="590.9999999999999" y="4.199999999999999" transform="translate(0,278.16999999999996)" style="font-family: 'Gravitas One'; font-size: 12px; fill: rgb(42, 63, 95); fill-opacity: 1; white-space: pre;">5</text></g><g class="y2tick"><text text-anchor="start" x="590.9999999999999" y="4.199999999999999" transform="translate(0,197.79000000000002)" style="font-family: 'Gravitas One'; font-size: 12px; fill: rgb(42, 63, 95); fill-opacity: 1; white-space: pre;">10</text></g><g class="y2tick"><text text-anchor="start" x="590.9999999999999" y="4.199999999999999" transform="translate(0,117.42)" style="font-family: 'Gravitas One'; font-size: 12px; fill: rgb(42, 63, 95); fill-opacity: 1; white-space: pre;">15</text></g></g></g></g><g class="subplot xy2"/></g><g class="polarlayer"/><g class="ternarylayer"/><g class="geolayer"/><g class="funnelarealayer"/><g class="pielayer"/><g class="treemaplayer"/><g class="sunburstlayer"/><g class="glimages"/><defs id="topdefs-3e5626"><g class="clips"/><clipPath id="legend3e5626"><rect width="150" height="29" x="0" y="0"/></clipPath></defs><g class="layer-above"><g class="imagelayer"/><g class="shapelayer"/></g><g class="infolayer"><g class="legend" pointer-events="all" transform="translate(275, 71)"><rect class="bg" shape-rendering="crispEdges" style="stroke: rgb(68, 68, 68); stroke-opacity: 1; fill: rgb(255, 255, 255); fill-opacity: 1; stroke-width: 0px;" width="150" height="29" x="0" y="0"/><g class="scrollbox" transform="translate(0, 0)" clip-path="url('#legend3e5626')"><g class="groups"><g class="traces" transform="translate(0, 14.5)" style="opacity: 1;"><text class="legendtext user-select-none" text-anchor="start" x="40" y="4.680000000000001" style="font-family: 'Gravitas One'; font-size: 12px; fill: rgb(42, 63, 95); fill-opacity: 1; white-space: pre;">CRIX</text><g class="layers" style="opacity: 1;"><g class="legendfill"/><g class="legendlines"><path class="js-line" d="M5,0h30" style="fill: none; stroke: rgb(255, 110, 88); stroke-opacity: 1; stroke-width: 2px;"/></g><g class="legendsymbols"><g class="legendpoints"/></g></g><rect class="legendtoggle" pointer-events="all" x="0" y="-9.5" width="71.515625" height="19" style="cursor: pointer; fill: rgb(0, 0, 0); fill-opacity: 0;"/></g><g class="traces" transform="translate(74.015625, 14.5)" style="opacity: 1;"><text class="legendtext user-select-none" text-anchor="start" x="40" y="4.680000000000001" style="font-family: 'Gravitas One'; font-size: 12px; fill: rgb(42, 63, 95); fill-opacity: 1; white-space: pre;">SENT</text><g class="layers" style="opacity: 1;"><g class="legendfill"/><g class="legendlines"><path class="js-line" d="M5,0h30" style="fill: none; stroke: rgb(33, 204, 203); stroke-opacity: 1; stroke-width: 2px;"/></g><g class="legendsymbols"><g class="legendpoints"/></g></g><rect class="legendtoggle" pointer-events="all" x="0" y="-9.5" width="72.5" height="19" style="cursor: pointer; fill: rgb(0, 0, 0); fill-opacity: 0;"/></g></g></g><rect class="scrollbar" rx="20" ry="3" width="0" height="0" style="fill: rgb(128, 139, 164); fill-opacity: 1;" x="0" y="0"/></g><g class="g-gtitle"/><g class="g-xtitle"/><g class="g-ytitle"/><g class="g-y2title"/></g></svg>