<svg class="main-svg" xmlns="http://www.w3.org/2000/svg" xmlns:xlink="http://www.w3.org/1999/xlink" width="700" height="500" style="" viewBox="0 0 700 500"><rect x="0" y="0" width="700" height="500" style="fill: rgb(255, 255, 255); fill-opacity: 1;"/><defs id="defs-872349"><g class="clips"><clipPath id="clip872349xyplot" class="plotclip"><rect width="540" height="320"/></clipPath><clipPath class="axesclip" id="clip872349x"><rect x="80" y="0" width="540" height="500"/></clipPath><clipPath class="axesclip" id="clip872349y"><rect x="0" y="100" width="700" height="320"/></clipPath><clipPath class="axesclip" id="clip872349xy"><rect x="80" y="100" width="540" height="320"/></clipPath></g><g class="gradients"/></defs><g class="bglayer"><rect class="bg" x="80" y="100" width="540" height="320" style="fill: rgb(229, 236, 246); fill-opacity: 1; stroke-width: 0;"/></g><g class="layer-below"><g class="imagelayer"/><g class="shapelayer"/></g><g class="cartesianlayer"><g class="subplot xy"><g class="layer-subplot"><g class="shapelayer"/><g class="imagelayer"/></g><g class="gridlayer"><g class="x"/><g class="y"/></g><g class="zerolinelayer"><path class="yzl zl crisp" transform="translate(0,404.48)" d="M80,0h540" style="stroke: rgb(255, 255, 255); stroke-opacity: 1; stroke-width: 2px;"/></g><path class="xlines-below"/><path class="ylines-below"/><g class="overlines-below"/><g class="xaxislayer-below"/><g class="yaxislayer-below"/><g class="overaxes-below"/><g class="plot" transform="translate(80, 100)" clip-path="url('#clip872349xyplot')"><g class="scatterlayer mlayer"><g class="trace scatter trace0894bc" style="stroke-miterlimit: 2; opacity: 1;"><g class="fills"/><g class="errorbars"/><g class="lines"><path class="js-line" d="M0.26,303.53L142.45,303.27L142.71,303.23L144.8,302.98L145.06,302.98L152.12,302.71L152.38,302.77L158.92,302.76L159.18,302.76L172.51,302.86L172.77,302.85L202.3,302.21L202.57,302.5L210.67,301.95L210.93,301.98L215.11,301.49L215.37,301.37L216.94,301.33L217.2,301.55L219.29,301.05L219.55,301.32L220.34,301.42L220.6,301.24L221.91,301.5L222.17,301.32L231.58,299.72L231.84,299.5L233.93,297.9L234.19,298.02L235.5,296.78L235.76,296.52L237.33,293.93L237.59,294.76L237.85,295.19L238.11,295.95L238.37,295.33L238.64,294.85L239.16,294.22L239.42,293.56L241.77,290.96L242.03,290.53L243.08,292.02L243.34,291.63L243.6,290.81L243.86,291.17L244.12,290.82L244.39,290.42L245.95,292.84L246.21,292.46L246.48,291.79L246.74,292.15L247,292.6L247.26,293.12L247.52,292.59L247.78,292.47L248.57,292.48L248.83,293.33L249.09,293.07L249.35,293.37L249.61,294.47L251.18,296.59L251.44,295.32L252.75,292.98L253.01,293.25L253.27,293.21L253.53,294.11L254.06,293.96L254.32,293.51L254.84,293.99L255.1,293.58L255.36,293.47L256.15,293.19L256.41,291.81L256.93,291.29L257.19,290.7L257.72,290.84L257.98,290.25L259.55,288.4L259.81,289.29L262.16,287.93L262.42,287.56L263.47,285.11L263.73,286.67L263.99,286.37L264.25,288.12L264.77,286.7L265.03,286.86L265.3,288.05L266.6,289.5L266.86,292.68L267.91,289.21L268.17,289.46L268.43,289.59L268.69,290.56L268.95,290.71L269.22,289.77L270.26,288.54L270.52,288.97L270.78,289.1L271.57,288.43L271.83,288.67L272.09,288.91L274.18,286.46L274.44,285.32L275.49,285.53L275.75,285.78L277.06,285.54L277.32,286.16L279.41,283.62L279.67,282.86L280.45,282.02L280.72,282.51L281.5,281.41L281.76,282.38L285.16,275.85L285.42,274.75L286.47,269.75L286.73,272.36L288.56,261.86L288.82,252.5L289.34,257.82L289.6,257.67L289.86,253.11L291.69,236.03L291.96,235.46L292.48,237.22L292.74,247.62L293.79,237.93L294.05,238.39L294.31,241.93L294.57,237.08L294.83,241.62L295.09,236.64L295.35,237.73L295.61,231.76L296.66,216.25L296.92,216.32L297.18,223.82L297.71,225.36L297.97,232.87L298.49,223.37L298.75,227.65L299.01,230.79L299.54,247.4L299.8,245.08L300.06,244.62L300.32,237.68L300.58,245.81L300.84,249.36L301.1,249.74L301.36,247.46L301.63,247.5L301.89,248.68L302.41,243.2L302.67,246.17L302.93,246.56L303.98,260.36L304.24,258.94L304.76,270.76L305.29,267.31L305.55,263.81L306.59,259.58L306.85,261.15L307.9,251.3L308.16,254.2L308.42,252.4L308.94,253.01L309.21,259.03L309.47,257.1L309.73,259.57L309.99,259.2L310.51,256.3L311.04,256.52L311.3,256.26L312.08,255.46L312.34,258.31L313.39,265.76L313.65,263.41L315.22,270.9L315.48,270.79L315.74,268.63L316.26,267.65L316.52,268.8L316.79,268.74L317.05,269.52L317.31,269.87L317.57,271.56L319.14,277.58L319.4,276.65L319.66,274.76L319.92,277.37L320.18,277.21L320.45,278.26L320.71,277.35L320.97,276.81L321.23,277.31L321.49,276.97L321.75,275.92L322.8,270.24L323.06,271.05L323.32,271.47L323.58,269.72L325.15,260.05L325.41,264.91L326.46,260.53L326.72,262.04L326.98,262.13L327.24,261.38L328.03,257.58L328.29,258.54L329.59,265.72L329.85,264.99L330.12,263.46L330.38,263.64L330.64,265.23L331.16,267.41L331.42,266.54L331.68,266.76L331.95,265.3L332.21,265.99L332.47,268.16L333.51,271.1L333.78,271.39L334.04,273.47L334.3,271.25L334.56,271.52L335.61,268.95L336.13,269.41L336.39,269.47L336.91,269.81L337.17,270.5L338.22,276.42L338.48,274.66L339.26,276L339.53,274.83L339.79,274.39L340.31,274.81L340.57,277.8L341.36,277.66L341.62,278.91L341.88,278.47L342.14,279.63L343.18,276.39L343.45,276.88L343.71,276.58L344.23,276.72L344.49,276.05L345.01,276.83L345.28,278.51L345.54,278.11L346.06,278.59L346.32,278.54L346.84,276.01L347.11,274.18L347.89,275.59L348.41,275.18L348.67,274.69L348.94,272.45L349.46,273.94L349.72,273.31L350.5,273.58L350.76,275.2L352.59,279.03L352.86,281.03L353.12,280.09L353.38,281.63L353.64,281.98L353.9,281.68L354.16,282.52L354.42,282.93L354.95,282.46L355.21,280.68L355.99,282.61L356.25,281.82L356.52,282.46L356.78,281.83L357.04,281.35L357.56,281.48L357.82,280.55L358.08,279.7L358.61,280.21L358.87,280.12L359.91,279.08L360.17,281.94L361.74,284.01L362,283.94L362.79,282.75L363.05,282.84L363.31,283.99L364.88,280.16L365.14,281.26L365.66,281.56L365.92,280.47L367.49,281.31L367.75,281.1L369.06,281.05L369.32,281.3L369.58,283.37L370.11,282.78L370.37,282.96L371.15,281.56L371.41,282.05L375.33,282.54L375.6,282.37L376.64,280.93L376.9,281.47L377.16,281.75L378.21,281.93L378.47,284.13L379.78,285.67L380.04,289.01L380.3,288.24L380.56,289.27L380.82,289.34L381.87,291.19L382.13,289.8L383.7,291.13L383.96,291.82L384.74,293.08L385,292.67L386.57,293.82L386.83,293.77L387.88,290.64L388.14,291.23L388.4,290.89L388.93,290.08L389.19,291.18L389.45,291.03L389.71,291.98L390.23,290.83L390.49,290.94L390.76,291.29L391.8,290.61L392.06,290.69L392.85,290.17L393.11,290.06L394.15,292.23L394.41,291.51L395.46,291.78L395.72,291.51L396.77,291.93L397.03,291.88L400.69,292.4L400.95,291.39L402.52,291.54L402.78,291.49L403.3,291.11L403.56,290.23L404.87,289.27L405.13,290.74L406.18,290.52L406.44,290.48L407.48,290.35L407.74,290.29L414.54,289.06L414.8,286.4L416.89,285.02L417.15,286.2L420.55,285.65L420.81,286.54L421.6,286.36L421.86,286.67L423.17,284.78L423.43,284.93L423.69,284.87L424.73,283.3L425,280.11L425.26,281.4L425.52,278.96L425.78,277.62L426.04,276.34L426.3,277.06L426.56,278.96L426.82,279.32L427.09,276.36L427.87,278.18L428.13,277.61L428.39,277.22L428.65,277.05L428.92,275.12L429.18,274.14L429.7,274.61L429.96,275.85L430.75,274.37L431.01,276.36L431.27,278.06L431.79,277.33L432.05,276.71L432.58,278.26L432.84,277.08L433.1,277.41L433.36,276.55L433.62,276.33L434.67,272.97L434.93,273.81L435.71,270.69L435.97,268.65L436.5,267.89L436.76,265.92L437.02,262.77L437.28,268.46L437.54,265.21L437.8,265.88L438.33,269.82L438.59,269.65L438.85,266.39L439.37,269.3L439.63,268.42L439.89,267.82L440.42,265.1L440.68,266.52L440.94,269.22L441.2,267.9L441.46,269.08L441.72,272.83L441.98,270.98L442.25,275.13L442.51,274.5L442.77,271.6L444.34,273.89L444.6,273.7L444.86,273.72L445.12,275.06L445.64,274.88L445.91,274.6L447.47,268.62L447.73,269.69L448.26,268.5L448.52,269.16L448.78,270.43L449.04,269.66L449.3,270.2L449.56,271.4L449.83,274.33L450.35,273.53L450.61,273.76L451.13,271.68L451.39,272.24L451.66,273.99L452.18,272.84L452.44,273.81L453.22,273.85L453.48,275.27L453.75,275.99L454.27,275.62L454.53,275.34L455.05,272.89L455.58,273.19L455.84,273.82L456.36,273.41L456.62,273.57L456.88,274.12L458.71,273.19L458.97,273.1L459.24,272.79L459.5,273.09L459.76,273.6L460.02,273.63L460.28,274.79L461.06,279.64L461.33,279.32L461.59,279.23L461.85,279.71L462.11,278.91L462.37,278.68L463.42,279.3L463.68,280.01L464.46,277.74L464.72,277.89L464.99,278.84L465.77,278.42L466.03,278.92L466.29,279.48L467.6,278.85L467.86,279.36L468.38,281.17L468.64,277.61L469.69,275.42L469.95,276.16L471,276.05L471.26,275.51L472.04,275.79L472.3,276.99L472.83,276.17L473.09,276.97L473.87,277.2L474.13,277.83L474.66,277.68L474.92,278.68L475.44,279.14L475.7,280.59L476.49,282.68L476.75,282.29L477.01,282.06L477.79,280.54L478.05,281.02L478.32,281.41L479.1,282.04L479.36,281.59L479.62,281.27L480.41,281.62L480.67,281.96L482.24,283.14L482.5,284.24L482.76,282.46L483.28,282.64L483.54,282.81L483.8,281.92L484.33,282.53L484.59,282.7L486.42,282.52L486.68,283.22L487.99,279.78L488.25,280.11L488.51,280.71L488.77,279.69L489.03,279.89L489.29,279.41L489.55,279.56L489.82,276.65L490.34,276.98L490.6,276.2L492.69,278.12L492.95,277.24L494,274.33L494.26,275.01L494.52,274.79L495.3,275.03L495.57,273.46L497.92,269.79L498.18,271.55L498.7,272.23L498.96,270.7L499.49,272.83L499.75,272.41L500.01,272.6L500.27,271.49L500.53,272.6L500.79,273.79L501.84,276.61L502.1,276.63L503.15,275.11L503.41,274.54L504.71,278.77L504.98,288.03L505.24,286.35L505.76,286.84L506.02,288.07L506.81,284.52L507.33,284.69L507.59,285.65L508.64,282.88L508.9,283.9L509.42,285.31L509.68,283.92L510.2,283.34L510.46,282.4L511.25,282.42L511.51,280.56L513.34,281.9L513.6,281.94L513.86,282.66L514.12,281.18L514.39,281.26L514.65,280.42L514.91,280.87L515.17,281.77L515.43,281.81L515.69,280.89L517,278.77L517.26,278.7L518.31,270.9L518.57,271.29L518.83,271.53L519.35,270.75L519.61,268.22L520.14,269.31L520.4,271.72L520.66,272.75L521.18,272.02L521.44,269.17L521.7,270.51L522.23,269.36L522.49,268.99L522.75,268.97L523.01,270.02L524.06,271.92L524.32,271.55L524.58,271.77L524.84,269.36L525.36,269.68L525.62,268.4L525.89,269.31L526.15,266.92L526.41,268.89L526.93,268.08L527.19,268.51L528.5,267.73L528.76,269.78L529.28,269.18L529.55,269.67L529.81,269.45L530.33,269.27L530.59,269.53L530.85,269.91L531.37,269.96L531.64,268.51L531.9,268.65L532.16,269.71L532.94,270.96L533.2,270.53L533.47,270.32L535.03,270.54L535.3,269.19L535.56,269.48L535.82,268.54L536.6,269.31L536.86,269.02L538.43,269.56L538.69,269.35L538.95,269.67L539.22,268.75L539.74,267.48L540,267.63" style="vector-effect: non-scaling-stroke; fill: none; stroke: rgb(255, 110, 88); stroke-opacity: 1; stroke-width: 2px; opacity: 1;"/></g><g class="points"/><g class="text"/></g><g class="trace scatter trace5ed1d2" style="stroke-miterlimit: 2; opacity: 1;"><g class="fills"/><g class="errorbars"/><g class="lines"><path class="js-line" d="M1.83,303.5L84.16,303.06L84.42,303.02L88.08,302.96L88.34,302.9L90.44,303L90.7,302.84L92.27,302.96L92.53,302.94L160.22,303.44L160.48,303.54L170.68,303.56L170.94,303.56L215.37,302.83L215.63,302.77L219.29,302.82L219.55,302.95L220.6,302.91L220.86,302.82L231.84,302.33L232.1,302.18L236.81,300.77L237.07,300.41L239.16,301.52L239.42,301.32L242.82,301.03L243.08,301.1L244.65,301.29L244.91,301.28L246.21,301.61L246.48,301.77L249.35,301.64L249.61,301.92L251.97,302.36L252.23,301.99L254.84,301.93L255.1,301.83L266.6,300.87L266.86,301.64L268.17,300.74L268.43,300.77L269.74,300.99L270,301.06L271.57,300.85L271.83,300.91L274.18,300.6L274.44,300.36L278.36,300.45L278.63,300.67L285.42,299.98L285.68,299.82L286.99,299.33L287.25,299.68L288.56,299.95L288.82,298.95L290.91,299.89L291.17,299.55L292.48,299.9L292.74,299.19L293.52,298.35L293.79,299L294.57,299.12L294.83,299.48L296.92,297.24L297.18,297.85L298.75,297.84L299.01,297.57L299.8,295.7L300.06,295.77L300.32,294.76L301.1,292.84L301.36,293.32L301.63,293.31L302.41,293.81L302.67,293.3L302.93,293.37L304.24,296.29L304.5,297.03L304.76,298.42L305.29,297.33L305.55,296.66L306.07,297.28L306.33,296.92L306.59,296.33L307.9,294.9L308.16,295.42L308.94,295.2L309.21,296.29L310.51,295.35L310.77,295.69L312.34,294.74L312.6,295.4L313.13,295.96L313.39,295.6L313.65,295.07L314.17,294.73L314.43,295.76L315.74,295.83L316,296.03L318.09,295.39L318.35,296.39L319.4,296.51L319.66,295.97L320.71,295.22L320.97,295.4L321.75,295.34L322.01,294.16L323.32,294.05L323.58,293.49L325.41,289.38L325.67,288.43L326.2,288.08L326.72,289L326.98,289.03L328.29,287.99L328.55,288.58L329.07,288.35L329.33,289.01L329.85,290.42L330.12,289.87L330.38,289.93L330.64,289.37L330.9,289.53L331.16,290.21L332.21,288.95L332.47,289.83L332.73,290.9L333.25,290.25L333.51,290.09L333.78,289.96L334.04,290.88L335.08,289.41L335.34,289.01L336.13,288.85L336.39,288.87L337.17,288.72L337.43,290.32L337.7,290.06L337.96,290.92L338.22,291.46L338.48,290.65L338.74,290.02L339.26,290.04L339.53,289.45L340.31,289.7L340.57,291.19L341.36,291.43L341.62,290.82L342.4,290.63L342.66,291.1L343.18,290.28L343.45,290.03L344.23,289.94L344.49,290.29L345.28,289.61L345.54,289.39L346.32,289.69L346.58,289.33L347.11,287.2L347.63,287.39L347.89,288.01L348.41,288.24L348.67,287.97L348.94,286.73L349.98,287.26L350.24,287.26L350.5,287.47L350.76,286.57L351.55,287.25L351.81,286.48L352.33,286.63L352.59,287.46L353.64,289.43L353.9,289.63L354.69,290.59L354.95,290.44L355.21,289.3L355.73,288.26L356.25,288.59L356.52,289.04L358.34,286.57L358.61,286.73L358.87,286.67L359.13,285.99L359.65,286.29L359.91,286.15L360.7,288.98L360.96,288.29L362,288.2L362.27,287.42L363.05,287.18L363.31,288.09L364.88,284.77L365.14,285.66L365.66,286.01L365.92,285.13L367.49,285.8L367.75,285.63L369.32,285.87L369.58,287.53L370.37,287.46L370.63,288.49L374.03,288.5L374.29,289.08L376.12,288.46L376.38,289.01L378.21,289.37L378.47,290.85L379.78,291.53L380.04,293.83L380.3,293.3L380.56,294.01L380.82,294.06L382.39,290.59L382.65,290.59L383.96,292.37L384.22,293.46L385,293.2L385.27,292.79L386.83,293.49L387.1,292.36L387.62,292.89L387.88,291.68L388.14,292.22L388.66,291.65L388.93,291.16L390.23,287.54L390.49,287.67L390.76,288.11L392.85,285.04L393.11,284.9L393.89,287.13L394.15,286.41L395.2,284.43L395.46,284.64L397.03,283.08L397.29,283.12L397.81,283.31L398.07,284.27L398.33,284.41L398.6,283.83L398.86,283.7L399.9,283.9L400.16,283.88L400.69,284.31L400.95,282.62L403.04,283.26L403.3,282.77L404.09,280.93L404.35,281.4L404.61,281.09L404.87,282.04L405.13,284.22L405.65,283.91L405.91,283.9L407.22,284.38L407.48,283.41L408.27,283.44L408.53,283.93L409.84,284.01L410.1,283.65L411.4,282.65L411.67,283.05L412.71,283.32L412.97,283.51L414.02,282.52L414.28,282.46L414.54,282.24L414.8,278.4L415.85,277.48L416.11,278.17L416.37,278.46L416.63,277.92L416.89,277.29L417.94,279.24L418.2,278.71L419.24,277.48L419.51,277.44L419.77,277.75L420.03,277.49L420.29,277.12L420.81,279.14L421.34,278.75L421.6,278.59L422.9,275.85L423.43,276.23L423.69,276.14L424.73,273.87L425,269.26L426.04,259.27L426.3,260.42L426.56,263.47L426.82,262.89L427.09,258L429.18,248.03L429.44,248.44L429.7,248.89L430.22,253.31L430.75,251.67L431.01,248.18L431.27,251.59L431.79,250.88L432.05,249.65L432.31,248.72L432.58,250.93L433.88,242.73L434.14,243.6L435.71,235.77L435.97,231.62L436.23,232.13L436.5,231.13L436.76,227.17L438.33,192.01L438.59,192.58L438.85,203.03L439.11,197L439.63,201.56L439.89,203.26L440.15,197.28L440.42,198.83L440.68,202.66L440.94,209.88L441.2,206.35L441.46,203.17L441.72,213.89L441.98,208.6L442.25,196.72L442.51,194.41L442.77,205.07L443.55,200.81L443.81,203.6L444.6,199.46L444.86,199.38L445.91,193.09L446.17,198.47L446.95,201.96L447.21,200.66L448,186.2L448.26,186.27L448.52,188.43L449.3,179.59L449.56,183.96L449.83,194.64L450.35,191.72L450.61,190.92L450.87,192.69L451.13,186.95L451.39,184.94L451.66,191.43L451.92,190.86L452.18,187.16L452.96,181.97L453.22,183.66L453.75,192.1L454.27,191.52L454.53,190.41L454.79,184.32L455.31,188.78L455.58,188.93L455.84,191.27L456.1,189.43L456.36,189.09L456.62,189.69L456.88,187.68L457.14,187.56L457.41,185.05L458.19,186.45L458.45,186.24L458.71,185.36L459.24,183.85L459.5,184.98L460.28,191.46L460.54,202.96L461.85,210.79L462.11,207.78L463.68,213.41L463.94,209.52L464.2,209.56L464.46,205.03L464.72,205.6L464.99,209.13L465.77,207.55L466.03,209.44L467.08,212.07L467.34,209.23L467.6,209.32L467.86,211.23L468.38,217.94L468.64,204.75L469.43,214.86L469.69,212.57L469.95,214.91L470.47,214.51L470.74,213.77L471,214.58L471.26,212.86L471.52,212.96L471.78,212.23L472.3,217.55L472.57,217.01L472.83,214.96L473.35,211.95L473.61,211.99L473.87,213.24L475.18,219.18L475.44,219.7L476.22,229.04L476.49,225.27L477.79,218.3L478.05,220.02L478.32,221.42L479.36,225.28L479.62,224.16L479.88,224.11L480.15,223.68L480.41,225.3L480.93,227.01L481.19,226.78L481.45,226.4L481.97,224.21L482.24,227.2L482.5,231.18L482.76,224.76L483.02,223.51L483.28,222.87L483.54,223.51L483.8,220.19L484.07,221.72L484.59,221.61L484.85,221.42L485.63,218.71L485.9,220.39L486.68,223.58L486.94,219.41L487.46,219.81L487.73,214.84L487.99,211.61L488.25,212.86L488.51,215.1L489.03,210.54L489.29,212.36L489.55,212.89L490.6,200.12L490.86,200.72L491.91,205L492.17,201.45L492.43,201.68L492.69,200.62L494,185.7L494.26,188.38L494.52,187.5L495.04,187.26L495.3,188.46L496.61,174.45L496.87,171.58L497.92,161.63L498.18,168.88L498.44,169.13L498.7,171.68L500.01,155.77L500.27,150.63L500.53,145.47L500.79,151.38L501.06,161.51L501.32,161.59L501.58,160.8L502.1,164.02L502.36,157.83L503.15,150.99L503.41,153.95L503.67,157.85L504.98,221.82L505.24,213.4L505.5,208L506.54,190.78L506.81,174.26L507.07,173.62L507.33,174.11L507.59,180.41L507.85,168.5L508.37,174.76L508.64,172.88L509.42,187.69L509.68,179.24L509.94,179.81L510.2,176.86L512.03,152.16L512.29,152.67L512.56,161.61L513.08,160.4L513.34,159.34L513.6,159.59L513.86,154.94L514.91,135.18L515.17,141.64L515.43,141.35L515.69,134.69L516.74,125.65L517,124.09L517.26,123.62L517.52,103.19L517.78,77.8L518.31,79.95L518.57,82.55L519.09,87.15L519.35,84.94L519.61,68.46L519.87,65.94L520.14,70.62L520.4,86.61L520.92,97.9L521.18,97.53L521.44,79.36L522.49,64.47L522.75,64.62L524.06,84.13L524.32,86.62L524.58,88.08L524.84,72.17L525.1,72.06L525.36,74.22L526.93,23.06L527.19,26.45L527.45,25.68L528.5,20.4L528.76,36.28L529.55,44.59L529.81,42.98L530.07,45.2L530.59,47.97L530.85,50.78L531.37,53.95L531.64,43.41L531.9,42.34L532.16,50.08L532.68,54L532.94,48.79L533.2,45.52L533.47,47.11L533.73,48.48L533.99,45.44L534.25,49.18L534.51,49.72L535.03,53.25L535.3,43.29L535.82,34.1L536.08,28.62L536.6,28.96L536.86,26.72L537.12,24.95L537.65,24.67L538.69,30.59L538.95,33.11L539.74,16L540,17.18" style="vector-effect: non-scaling-stroke; fill: none; stroke: rgb(33, 204, 203); stroke-opacity: 1; stroke-width: 2px; opacity: 1;"/></g><g class="points"/><g class="text"/></g></g></g><g class="overplot"/><path class="xlines-above crisp" d="M79,420.5H620" style="fill: none; stroke-width: 1px; stroke: rgb(255, 255, 255); stroke-opacity: 1;"/><path class="ylines-above crisp" d="M79.5,100V420" style="fill: none; stroke-width: 1px; stroke: rgb(255, 255, 255); stroke-opacity: 1;"/><g class="overlines-above"/><g class="xaxislayer-above"><g class="xtick"><text text-anchor="middle" x="0" y="435.4" transform="translate(88.89,0)" style="font-family: 'Gravitas One'; font-size: 12px; fill: rgb(42, 63, 95); fill-opacity: 1; white-space: pre;">2015</text></g><g class="xtick"><text text-anchor="middle" x="0" y="435.4" transform="translate(184.29000000000002,0)" style="font-family: 'Gravitas One'; font-size: 12px; fill: rgb(42, 63, 95); fill-opacity: 1; white-space: pre;">2016</text></g><g class="xtick"><text text-anchor="middle" x="0" y="435.4" transform="translate(279.95,0)" style="font-family: 'Gravitas One'; font-size: 12px; fill: rgb(42, 63, 95); fill-opacity: 1; white-space: pre;">2017</text></g><g class="xtick"><text text-anchor="middle" x="0" y="435.4" transform="translate(375.35,0)" style="font-family: 'Gravitas One'; font-size: 12px; fill: rgb(42, 63, 95); fill-opacity: 1; white-space: pre;">2018</text></g><g class="xtick"><text text-anchor="middle" x="0" y="435.4" transform="translate(470.76,0)" style="font-family: 'Gravitas One'; font-size: 12px; fill: rgb(42, 63, 95); fill-opacity: 1; white-space: pre;">2019</text></g><g class="xtick"><text text-anchor="middle" x="0" y="435.4" transform="translate(566.1600000000001,0)" style="font-family: 'Gravitas One'; font-size: 12px; fill: rgb(42, 63, 95); fill-opacity: 1; white-space: pre;">2020</text></g></g><g class="yaxislayer-above"><g class="ytick"><text text-anchor="end" x="76.6" y="4.199999999999999" transform="translate(0,404.48)" style="font-family: 'Gravitas One'; font-size: 12px; fill: rgb(42, 63, 95); fill-opacity: 1; white-space: pre;">0</text></g><g class="ytick"><text text-anchor="end" x="76.6" y="4.199999999999999" transform="translate(0,356.6)" style="font-family: 'Gravitas One'; font-size: 12px; fill: rgb(42, 63, 95); fill-opacity: 1; white-space: pre;">50</text></g><g class="ytick"><text text-anchor="end" x="76.6" y="4.199999999999999" transform="translate(0,308.72)" style="font-family: 'Gravitas One'; font-size: 12px; fill: rgb(42, 63, 95); fill-opacity: 1; white-space: pre;">100</text></g><g class="ytick"><text text-anchor="end" x="76.6" y="4.199999999999999" transform="translate(0,260.83000000000004)" style="font-family: 'Gravitas One'; font-size: 12px; fill: rgb(42, 63, 95); fill-opacity: 1; white-space: pre;">150</text></g><g class="ytick"><text text-anchor="end" x="76.6" y="4.199999999999999" transform="translate(0,212.95)" style="font-family: 'Gravitas One'; font-size: 12px; fill: rgb(42, 63, 95); fill-opacity: 1; white-space: pre;">200</text></g><g class="ytick"><text text-anchor="end" x="76.6" y="4.199999999999999" transform="translate(0,165.07)" style="font-family: 'Gravitas One'; font-size: 12px; fill: rgb(42, 63, 95); fill-opacity: 1; white-space: pre;">250</text></g><g class="ytick"><text text-anchor="end" x="76.6" y="4.199999999999999" transform="translate(0,117.19)" style="font-family: 'Gravitas One'; font-size: 12px; fill: rgb(42, 63, 95); fill-opacity: 1; white-space: pre;">300</text></g></g><g class="overaxes-above"/></g></g><g class="polarlayer"/><g class="ternarylayer"/><g class="geolayer"/><g class="funnelarealayer"/><g class="pielayer"/><g class="treemaplayer"/><g class="sunburstlayer"/><g class="glimages"/><defs id="topdefs-872349"><g class="clips"/><clipPath id="legend872349"><rect width="203" height="29" x="0" y="0"/></clipPath></defs><g class="layer-above"><g class="imagelayer"/><g class="shapelayer"/></g><g class="infolayer"><g class="legend" pointer-events="all" transform="translate(248.5, 71)"><rect class="bg" shape-rendering="crispEdges" style="stroke: rgb(68, 68, 68); stroke-opacity: 1; fill: rgb(255, 255, 255); fill-opacity: 1; stroke-width: 0px;" width="203" height="29" x="0" y="0"/><g class="scrollbox" transform="translate(0, 0)" clip-path="url('#legend872349')"><g class="groups"><g class="traces" transform="translate(0, 14.5)" style="opacity: 1;"><text class="legendtext user-select-none" text-anchor="start" x="40" y="4.680000000000001" style="font-family: 'Gravitas One'; font-size: 12px; fill: rgb(42, 63, 95); fill-opacity: 1; white-space: pre;">MARKET</text><g class="layers" style="opacity: 1;"><g class="legendfill"/><g class="legendlines"><path class="js-line" d="M5,0h30" style="fill: none; stroke: rgb(255, 110, 88); stroke-opacity: 1; stroke-width: 2px;"/></g><g class="legendsymbols"><g class="legendpoints"/></g></g><rect class="legendtoggle" pointer-events="all" x="0" y="-9.5" width="93.171875" height="19" style="cursor: pointer; fill: rgb(0, 0, 0); fill-opacity: 0;"/></g><g class="traces" transform="translate(95.671875, 14.5)" style="opacity: 1;"><text class="legendtext user-select-none" text-anchor="start" x="40" y="4.680000000000001" style="font-family: 'Gravitas One'; font-size: 12px; fill: rgb(42, 63, 95); fill-opacity: 1; white-space: pre;">STRATEGY</text><g class="layers" style="opacity: 1;"><g class="legendfill"/><g class="legendlines"><path class="js-line" d="M5,0h30" style="fill: none; stroke: rgb(33, 204, 203); stroke-opacity: 1; stroke-width: 2px;"/></g><g class="legendsymbols"><g class="legendpoints"/></g></g><rect class="legendtoggle" pointer-events="all" x="0" y="-9.5" width="104.171875" height="19" style="cursor: pointer; fill: rgb(0, 0, 0); fill-opacity: 0;"/></g></g></g><rect class="scrollbar" rx="20" ry="3" width="0" height="0" style="fill: rgb(128, 139, 164); fill-opacity: 1;" x="0" y="0"/></g><g class="g-gtitle"/><g class="g-xtitle"/><g class="g-ytitle"/></g></svg>